<svg xmlns="http://www.w3.org/2000/svg" xmlns:xlink="http://www.w3.org/1999/xlink" width="222.783" height="323.556" viewBox="0 0 167.087 242.667" xmlns:v="https://vecta.io/nano"><style><![CDATA[.B{fill:#df0000}.C{font-size:32px}.D{word-spacing:0px}.E{font-family:Bitstream Vera Sans}.F{font-weight:400}.G{font-family:Arial}]]></style><path d="M166.837 235.548a6.89 6.89 0 0 1-6.871 6.869H7.11c-3.775 0-6.86-3.092-6.86-6.87V7.12A6.89 6.89 0 0 1 7.111.25h152.855a6.89 6.89 0 0 1 6.871 6.87v228.428z" fill="#fff" stroke-width=".5" stroke="#000"/><text xml:space="preserve" x="0.408" y="26.413" letter-spacing="0" class="B C D E"><tspan x="0.408" y="26.413" font-weight="normal" class="G">1</tspan></text><g class="B"><use xlink:href="#B"/><use xlink:href="#B" x="133.652" y="154.268"/><use xlink:href="#C"/><use xlink:href="#C" y="-179.294"/><use xlink:href="#C" y="-59.732"/><use xlink:href="#C" y="-119.564"/><use xlink:href="#C" x="58.767"/><path d="M121.3 19.4c-5.48-7.413-8.395-14.947-8.395-14.947S109.98 11.977 104.5 19.4 92.2 31.62 92.2 31.62s6.83 4.818 12.312 12.233c5.48 7.4 8.395 14.944 8.395 14.944s2.915-7.534 8.395-14.944 12.312-12.233 12.312-12.233-6.83-4.82-12.312-12.23zm0 119.562c-5.48-7.413-8.395-14.947-8.395-14.947s-2.915 7.534-8.395 14.947-12.312 12.23-12.312 12.23S99.02 156 104.5 163.416c5.48 7.4 8.395 14.944 8.395 14.944s2.915-7.534 8.395-14.944 12.312-12.233 12.312-12.233-6.83-4.82-12.312-12.23zm0-59.832c-5.48-7.413-8.395-14.947-8.395-14.947s-2.915 7.534-8.395 14.947-12.3 12.232-12.3 12.232 6.83 4.818 12.312 12.233c5.48 7.4 8.395 14.944 8.395 14.944s2.915-7.534 8.395-14.944c5.482-7.415 12.312-12.233 12.312-12.233s-6.83-4.82-12.312-12.23zM91.608 49.598c-5.48-7.413-8.395-14.947-8.395-14.947s-2.915 7.534-8.395 14.947-12.312 12.23-12.312 12.23 6.83 4.818 12.312 12.233c5.48 7.4 8.395 14.944 8.395 14.944s2.915-7.534 8.395-14.944c5.492-7.414 12.312-12.23 12.312-12.23S97.1 57 91.608 49.6z"/><use xlink:href="#C" x="28.88" y="-30.076"/><text xml:space="preserve" x="13.216" y="26.376" letter-spacing="0" class="C D E"><tspan x="13.216" y="26.376" font-weight="normal" class="G">0</tspan></text><text xml:space="preserve" x="-166.435" y="-215.984" transform="scale(-1)" letter-spacing="0" class="C D E"><tspan x="-166.435" y="-215.984" font-weight="normal" class="G">1</tspan></text><text xml:space="preserve" x="-153.627" y="-216.021" transform="scale(-1)" letter-spacing="0" class="C D E"><tspan x="-153.627" y="-216.021" font-weight="normal" class="G">0</tspan></text></g><defs ><path id="B" d="M21.758 37.257c-3.127-4.23-4.8-8.53-4.8-8.53s-1.663 4.3-4.8 8.53-7.025 6.98-7.025 6.98 3.897 2.75 7.025 6.98 4.8 8.527 4.8 8.527 1.663-4.3 4.8-8.527 7.025-6.98 7.025-6.98-3.897-2.75-7.025-6.98z"/><path id="C" d="M62.523 198.684c-5.48-7.413-8.395-14.947-8.395-14.947s-2.915 7.534-8.395 14.947-12.312 12.23-12.312 12.23 6.83 4.818 12.312 12.233c5.48 7.4 8.395 14.944 8.395 14.944s2.915-7.534 8.395-14.944c5.482-7.415 12.312-12.233 12.312-12.233s-6.83-4.82-12.312-12.23z"/></defs></svg>