<svg xmlns="http://www.w3.org/2000/svg" width="222.783" height="323.556" viewBox="0 0 167.087 242.667" xmlns:v="https://vecta.io/nano"><path d="M166.837 235.548a6.89 6.89 0 0 1-6.871 6.869H7.11c-3.775 0-6.86-3.092-6.86-6.87V7.12A6.89 6.89 0 0 1 7.111.25h152.855a6.89 6.89 0 0 1 6.871 6.87v228.428z" fill="#fff" stroke-width=".5" stroke="#000"/><text xml:space="preserve" x="8.775" y="28.013" font-size="32" letter-spacing="0" word-spacing="0" fill="#df0000" font-family="Bitstream Vera Sans"><tspan x="8.775" y="28.013" font-weight="normal" font-family="Arial">2</tspan></text><path d="M23.332 32.282c-5.43 0-6.155 5.448-6.155 5.448s-.725-5.448-6.155-5.448c-3.8 0-7.24 2.443-7.24 7.05 0 6.09 11.016 12.213 13.394 21.154 2.264-8.934 13.394-15.065 13.394-21.154 0-4.61-3.44-7.05-7.24-7.05z" fill="#df0000"/><text xml:space="preserve" x="-158.818" y="-213.515" transform="scale(-1)" font-size="32" letter-spacing="0" word-spacing="0" fill="#df0000" font-family="Bitstream Vera Sans"><tspan x="-158.818" y="-213.515" font-weight="normal" font-family="Arial">2</tspan></text><path d="M144 209.246c5.43 0 6.155-5.448 6.155-5.448s.725 5.448 6.155 5.448c3.8 0 7.24-2.443 7.24-7.05 0-6.1-11.016-12.213-13.394-21.154-2.264 8.934-13.394 15.065-13.394 21.154 0 4.6 3.44 7.05 7.24 7.05zM93.917 33.452c-9.012 0-10.216 9.043-10.216 9.043s-1.203-9.043-10.216-9.043c-6.308 0-12.016 4.055-12.016 11.704 0 10.107 18.284 20.27 22.232 35.112 3.757-14.83 22.232-25.005 22.232-35.112 0-7.65-5.708-11.704-12.016-11.704zM73.485 208.67c9.012 0 10.216-9.043 10.216-9.043s1.203 9.043 10.216 9.043c6.308 0 12.016-4.055 12.016-11.704 0-10.107-18.284-20.27-22.232-35.112-3.757 14.83-22.232 25.005-22.232 35.112 0 7.65 5.708 11.704 12.016 11.704z" fill="#df0000"/></svg>