<svg xmlns="http://www.w3.org/2000/svg" xmlns:xlink="http://www.w3.org/1999/xlink" width="222.783" height="323.556" viewBox="0 0 167.087 242.667" xmlns:v="https://vecta.io/nano"><path d="M166.837 235.548a6.89 6.89 0 0 1-6.871 6.869H7.11c-3.775 0-6.86-3.092-6.86-6.87V7.12A6.89 6.89 0 0 1 7.111.25h152.855a6.89 6.89 0 0 1 6.871 6.87v228.428z" fill="#fff" stroke-width=".5" stroke="#000"/><text xml:space="preserve" x="8.311" y="27.548" font-size="32" letter-spacing="0" word-spacing="0" fill="#000" font-family="Bitstream Vera Sans"><tspan x="8.311" y="27.548" font-weight="normal" font-family="Arial">4</tspan></text><path d="M20.69 43.74s3.528-2.823 3.528-6.736c0-2.29-2.034-6.094-6.736-6.094s-6.736 3.805-6.736 6.094c0 3.913 3.528 6.736 3.528 6.736-3.92-3.053-10.906-.97-10.906 5.133 0 3.054 2.496 6.415 6.415 6.415 4.702 0 6.736-5.133 6.736-5.133s.597 5.85-2.887 8.982h7.7c-3.484-3.13-2.887-8.982-2.887-8.982s2.034 5.133 6.736 5.133c3.92 0 6.415-3.362 6.415-6.415 0-6.102-6.987-8.186-10.906-5.133z"/><text xml:space="preserve" x="-158.864" y="-214.467" transform="scale(-1)" font-size="32" letter-spacing="0" word-spacing="0" fill="#000" font-family="Bitstream Vera Sans"><tspan x="-158.864" y="-214.467" font-weight="normal" font-family="Arial">4</tspan></text><path d="M146.484 198.74s-3.528 2.823-3.528 6.736c0 2.29 2.034 6.094 6.736 6.094s6.736-3.805 6.736-6.094c0-3.913-3.528-6.736-3.528-6.736 3.92 3.053 10.906.97 10.906-5.133 0-3.054-2.496-6.415-6.415-6.415-4.702 0-6.736 5.133-6.736 5.133s-.597-5.85 2.887-8.982h-7.7c3.484 3.13 2.887 8.982 2.887 8.982s-2.034-5.133-6.736-5.133c-3.92 0-6.415 3.362-6.415 6.415 0 6.102 6.987 8.186 10.906 5.133z"/><use xlink:href="#B"/><use xlink:href="#C"/><use xlink:href="#B" x="58.077"/><use xlink:href="#C" x="58.077"/><defs ><path id="B" d="M59.173 55.5s5.967-4.774 5.967-11.392c0-3.874-3.44-10.307-11.392-10.307s-11.392 6.435-11.392 10.307c0 6.618 5.967 11.392 5.967 11.392-6.628-5.163-18.445-1.638-18.445 8.68 0 5.166 4.22 10.85 10.85 10.85 7.952 0 11.392-8.68 11.392-8.68s1 9.895-4.882 15.19h13.02c-5.892-5.294-4.882-15.19-4.882-15.19s3.44 8.68 11.392 8.68c6.63 0 10.85-5.686 10.85-10.85 0-10.32-11.817-13.844-18.445-8.68z"/><path id="C" d="M48.368 188.244s-5.967 4.774-5.967 11.392c0 3.874 3.44 10.307 11.392 10.307s11.392-6.435 11.392-10.307c0-6.618-5.967-11.392-5.967-11.392 6.628 5.163 18.445 1.638 18.445-8.68 0-5.166-4.22-10.85-10.85-10.85-7.952 0-11.392 8.68-11.392 8.68s-1-9.895 4.882-15.19h-13.02c5.892 5.294 4.882 15.19 4.882 15.19s-3.44-8.68-11.392-8.68c-6.63 0-10.85 5.686-10.85 10.85 0 10.32 11.817 13.844 18.445 8.68z"/></defs></svg>