<svg xmlns="http://www.w3.org/2000/svg" xmlns:xlink="http://www.w3.org/1999/xlink" width="222.783" height="323.556" viewBox="0 0 167.087 242.667" xmlns:v="https://vecta.io/nano"><path d="M166.837 235.548a6.89 6.89 0 0 1-6.871 6.869H7.11c-3.775 0-6.86-3.092-6.86-6.87V7.12A6.89 6.89 0 0 1 7.111.25h152.855a6.89 6.89 0 0 1 6.871 6.87v228.428z" fill="#fff" stroke-width=".5" stroke="#000"/><text xml:space="preserve" x="8.547" y="28.013" font-size="32" letter-spacing="0" word-spacing="0" fill="#000" font-family="Bitstream Vera Sans"><tspan x="8.547" y="28.013" font-weight="normal" font-family="Arial">7</tspan></text><path d="M28.98 49.346c-.365-5.596-11.687-16.128-12.052-18.763-.365 2.633-11.687 13.166-12.052 18.763-.255 3.956 2.557 5.596 5.114 5.596 2.77-.03 5.055-3.863 5.843-4.608.365.988-2.418 9.217-3.287 9.217h8.766c-.87 0-3.652-8.23-3.287-9.217.7.685 2.71 4.494 5.844 4.608 2.556-.001 5.366-1.64 5.11-5.596z"/><use xlink:href="#B"/><text xml:space="preserve" x="-158.978" y="-215.124" transform="scale(-1)" font-size="32" letter-spacing="0" word-spacing="0" fill="#000" font-family="Bitstream Vera Sans"><tspan x="-158.978" y="-215.124" font-weight="normal" font-family="Arial">7</tspan></text><path d="M138.173 193.764c.365 5.596 11.687 16.128 12.052 18.763.365-2.633 11.687-13.166 12.052-18.763.255-3.956-2.557-5.596-5.114-5.596-2.77.03-5.055 3.863-5.843 4.608-.365-.988 2.418-9.217 3.287-9.217h-8.766c.87 0 3.652 8.23 3.287 9.217-.7-.685-2.7-4.494-5.844-4.608-2.556.001-5.366 1.64-5.1 5.596zm-104.677-2.707c.64 9.825 20.52 28.317 21.16 32.943.64-4.623 20.52-23.115 21.16-32.943.448-6.945-4.5-9.825-8.98-9.825-4.86.052-8.875 6.782-10.258 8.1-.64-1.734 4.246-16.182 5.77-16.182H46.96c1.526 0 6.412 14.448 5.77 16.182-1.2-1.202-4.76-7.9-10.26-8.1-4.487.002-9.42 2.88-8.974 9.825z"/><use xlink:href="#B" x="0.085" y="74.502"/><use xlink:href="#B" x="57.888" y="-0.2"/><path d="M91.383 190.858c.64 9.825 20.52 28.317 21.16 32.943.64-4.623 20.52-23.115 21.16-32.943.448-6.945-4.5-9.825-8.98-9.825-4.86.052-8.875 6.782-10.258 8.09-.64-1.734 4.246-16.182 5.77-16.182h-15.39c1.526 0 6.412 14.448 5.77 16.182-1.21-1.202-4.76-7.9-10.26-8.09-4.487.002-9.42 2.88-8.974 9.825z"/><use xlink:href="#B" x="57.972" y="74.303"/><use xlink:href="#B" x="28.885" y="39.373"/><defs ><path id="B" d="M75.77 52.08c-.64-9.825-20.52-28.317-21.16-32.943-.64 4.623-20.52 23.115-21.16 32.943-.448 6.945 4.5 9.825 8.98 9.825 4.86-.052 8.875-6.782 10.258-8.09.64 1.734-4.246 16.182-5.77 16.182h15.39c-1.526 0-6.412-14.448-5.77-16.182 1.21 1.202 4.76 7.9 10.26 8.09 4.487-.002 9.42-2.88 8.974-9.825z"/></defs></svg>