<svg xmlns="http://www.w3.org/2000/svg" xmlns:xlink="http://www.w3.org/1999/xlink" width="222.783" height="323.556" viewBox="0 0 167.087 242.667" xmlns:v="https://vecta.io/nano"><path d="M166.837 235.548a6.89 6.89 0 0 1-6.871 6.869H7.11c-3.775 0-6.86-3.092-6.86-6.87V7.12A6.89 6.89 0 0 1 7.111.25h152.855a6.89 6.89 0 0 1 6.871 6.87v228.428z" fill="#fff" stroke-width=".5" stroke="#000"/><text xml:space="preserve" x="7.846" y="26.413" font-size="32" letter-spacing="0" word-spacing="0" fill="#df0000" font-family="Bitstream Vera Sans"><tspan x="7.846" y="26.413" font-weight="normal" font-family="Arial">8</tspan></text><text xml:space="preserve" x="-159.488" y="-216.715" transform="scale(-1)" font-size="32" letter-spacing="0" word-spacing="0" fill="#df0000" font-family="Bitstream Vera Sans"><tspan x="-159.488" y="-216.715" font-weight="normal" font-family="Arial">8</tspan></text><g fill="#df0000"><use xlink:href="#B"/><use xlink:href="#B" x="133.652" y="154.268"/><use xlink:href="#C"/><use xlink:href="#C" y="-144.4"/><use xlink:href="#C" y="-73.09"/><path d="M62.808 181.5c-5.48-7.413-8.395-14.947-8.395-14.947s-2.915 7.534-8.395 14.947-12.312 12.23-12.312 12.23 6.83 4.818 12.312 12.233c5.48 7.4 8.395 14.944 8.395 14.944s2.915-7.534 8.395-14.944C68.3 198.558 75.12 193.74 75.12 193.74s-6.83-4.82-12.312-12.23zm0-144.393c-5.48-7.413-8.395-14.947-8.395-14.947s-2.915 7.534-8.395 14.947-12.312 12.23-12.312 12.23 6.83 4.818 12.312 12.233c5.48 7.4 8.395 14.944 8.395 14.944s2.915-7.534 8.395-14.944C68.3 54.155 75.12 49.338 75.12 49.338s-6.83-4.82-12.312-12.23z"/><use xlink:href="#C" x="-57.315" y="-72.982"/><use xlink:href="#C" x="-28.515" y="-108.083"/><use xlink:href="#C" x="-28.515" y="-36.697"/></g><defs ><path id="B" d="M21.758 37.257c-3.127-4.23-4.8-8.53-4.8-8.53s-1.663 4.3-4.8 8.53-7.025 6.98-7.025 6.98 3.897 2.75 7.025 6.98 4.8 8.527 4.8 8.527 1.663-4.3 4.8-8.527 7.025-6.98 7.025-6.98-3.897-2.75-7.025-6.98z"/><path id="C" d="M120.123 181.39c-5.48-7.413-8.395-14.947-8.395-14.947s-2.915 7.534-8.395 14.947-12.312 12.23-12.312 12.23 6.83 4.818 12.312 12.233c5.48 7.4 8.395 14.944 8.395 14.944s2.915-7.534 8.395-14.944c5.482-7.415 12.312-12.233 12.312-12.233s-6.83-4.82-12.312-12.23z"/></defs></svg>