<svg xmlns="http://www.w3.org/2000/svg" xmlns:xlink="http://www.w3.org/1999/xlink" width="222.783" height="323.556" viewBox="0 0 167.087 242.667" xmlns:v="https://vecta.io/nano"><path d="M166.837 235.548a6.89 6.89 0 0 1-6.871 6.869H7.11c-3.775 0-6.86-3.092-6.86-6.87V7.12A6.89 6.89 0 0 1 7.111.25h152.855a6.89 6.89 0 0 1 6.871 6.87v228.428z" fill="#fff" stroke-width=".5" stroke="#000"/><g fill="#df0000"><path d="M23.332 32.282c-5.43 0-6.155 5.448-6.155 5.448s-.725-5.448-6.155-5.448c-3.8 0-7.24 2.443-7.24 7.05 0 6.1 11.016 12.213 13.394 21.154C19.44 51.552 30.57 45.42 30.57 39.332c0-4.6-3.44-7.05-7.24-7.05zM144 209.246c5.43 0 6.155-5.448 6.155-5.448s.725 5.448 6.155 5.448c3.8 0 7.24-2.443 7.24-7.05 0-6.1-11.016-12.213-13.394-21.154-2.264 8.934-13.394 15.065-13.394 21.154 0 4.6 3.44 7.05 7.24 7.05zM64.728 6.596c-9.012 0-10.216 9.043-10.216 9.043S53.3 6.596 44.297 6.596C37.99 6.596 32.28 10.65 32.28 18.3c0 10.107 18.284 20.27 22.232 35.112 3.757-14.83 22.23-25.005 22.23-35.112 0-7.65-5.708-11.704-12.016-11.704z"/><use xlink:href="#B"/><path d="M64.728 71.83c-9.012 0-10.216 9.043-10.216 9.043S53.31 71.83 44.297 71.83c-6.308 0-12.016 4.055-12.016 11.704 0 10.107 18.284 20.27 22.232 35.112 3.757-14.83 22.232-25.005 22.232-35.112 0-7.65-5.708-11.704-12.016-11.704z"/><use xlink:href="#B" y="-67.45"/><use xlink:href="#C"/><use xlink:href="#B" x="57.478" y="0.599"/><use xlink:href="#C" y="65.235"/><use xlink:href="#B" x="57.478" y="-66.851"/><path d="M93.43 39.297c-9.012 0-10.216 9.043-10.216 9.043S82 39.297 72.998 39.297C66.69 39.297 60.98 43.35 60.98 51c0 10.107 18.284 20.27 22.232 35.112C86.97 71.284 105.445 61.108 105.445 51c0-7.65-5.708-11.704-12.016-11.704z"/></g><text xml:space="preserve" x="8.744" y="28.013" font-size="32" letter-spacing="0" word-spacing="0" fill="#df0000" font-family="Bitstream Vera Sans"><tspan x="8.744" y="28.013" font-weight="normal" font-family="Arial">9</tspan></text><text xml:space="preserve" x="-158.818" y="-213.515" transform="scale(-1)" font-size="32" letter-spacing="0" word-spacing="0" fill="#df0000" font-family="Bitstream Vera Sans"><tspan x="-158.818" y="-213.515" font-weight="normal" font-family="Arial">9</tspan></text><defs ><path id="B" d="M44.297 236.214c9.012 0 10.216-9.043 10.216-9.043s1.203 9.043 10.216 9.043c6.308 0 12.016-4.055 12.016-11.704 0-10.107-18.284-20.27-22.232-35.112-3.757 14.83-22.232 25.005-22.232 35.112 0 7.65 5.708 11.704 12.016 11.704z"/><path id="C" d="M122.207 7.195c-9.012 0-10.216 9.043-10.216 9.043s-1.203-9.043-10.216-9.043c-6.308 0-12.016 4.055-12.016 11.704 0 10.107 18.284 20.27 22.232 35.112 3.757-14.83 22.232-25.005 22.232-35.112 0-7.65-5.708-11.704-12.016-11.704z"/></defs></svg>