<svg xmlns="http://www.w3.org/2000/svg" width="222.783" height="323.556" viewBox="0 0 167.087 242.667" xmlns:v="https://vecta.io/nano"><defs><radialGradient id="A" cx="-.206" cy="-4.579" fx="-.206" fy="-4.579" r="8" gradientTransform="matrix(-1,0,0,-1.7201755,-0.41204074,-13.027194)" gradientUnits="userSpaceOnUse"><stop offset="0" stop-color="#df0000"/><stop offset="1" stop-color="#df0000" stop-opacity=".672"/></radialGradient><radialGradient r="81.903" fy="511.223" fx="171.487" cy="511.223" cx="171.487" gradientTransform="matrix(1.1529891,-0.67391547,0.39482025,0.67549043,-233.63262,270.40076)" id="B" gradientUnits="userSpaceOnUse"><stop offset="0" stop-color="#fff" stop-opacity=".313"/><stop offset="1" stop-opacity="0"/></radialGradient><filter color-interpolation-filters="sRGB" id="C" x="-.139" width="1.279" y="-.162" height="1.325"><feGaussianBlur stdDeviation="9.511"/></filter><radialGradient r="81.903" fy="492.632" fx="159.354" cy="492.632" cx="159.354" gradientTransform="matrix(1.0894779,-0.71513803,0.44645273,0.65626582,-244.93331,290.9185)" id="D" gradientUnits="userSpaceOnUse"><stop offset="0" stop-color="#fff" stop-opacity=".3"/><stop offset="1" stop-opacity="0"/></radialGradient></defs><path d="M166.837 235.548a6.89 6.89 0 0 1-6.871 6.869H7.11c-3.775 0-6.86-3.092-6.86-6.87V7.12A6.89 6.89 0 0 1 7.111.25h152.855a6.89 6.89 0 0 1 6.871 6.87v228.428z" fill="#fff" stroke-width=".5" stroke="#000"/><text xml:space="preserve" x="6.246" y="28.013" font-size="32" letter-spacing="0" word-spacing="0" fill="#df0000" font-family="Bitstream Vera Sans"><tspan x="6.246" y="28.013" font-weight="normal" font-family="Arial">A</tspan></text><g transform="matrix(.19687 0 0 .19687 11.54991 16.869674)"><path d="M3.676-9C.433-9 0-5.523 0-5.523S-.433-9-3.676-9C-5.946-9-8-7.44-8-4.5-8-.614-1.42 3.294 0 9 1.352 3.3 8-.614 8-4.5 8-7.44 5.946-9 3.676-9z" fill="url(#A)" transform="matrix(34.670635 0 0 32.448413 363.65075 535.3979)"/><path transform="matrix(1.484247 0 0 1.537104 -80.688965 -450.59362)" d="M117.3 604.266s-8.068-94.95 22.857-122.857c34.76-31.37 140-11.43 140-11.43s-71.54 24.838-100 48.57c-27.2 22.692-62.857 85.714-62.857 85.714z" fill="url(#B)" filter="url(#C)"/><path transform="matrix(1.153293 .337826 -.329283 1.401643 422.93775 -451.90481)" d="M117.3 604.266s-8.068-94.95 22.857-122.857c34.76-31.37 140-11.43 140-11.43s-63.093 37.07-91.553 60.804c-27.2 22.692-71.305 73.48-71.305 73.48z" fill="url(#D)" filter="url(#C)"/></g><path d="M23.332 32.282c-5.43 0-6.155 5.448-6.155 5.448s-.725-5.448-6.155-5.448c-3.8 0-7.24 2.443-7.24 7.05 0 6.09 11.016 12.213 13.394 21.154 2.264-8.934 13.394-15.065 13.394-21.154 0-4.61-3.44-7.05-7.24-7.05z" fill="#df0000"/><text xml:space="preserve" x="-161.088" y="-213.515" transform="scale(-1)" font-size="32" letter-spacing="0" word-spacing="0" fill="#df0000" font-family="Bitstream Vera Sans"><tspan x="-161.088" y="-213.515" font-weight="normal" font-family="Arial">A</tspan></text><path d="M144 209.246c5.43 0 6.155-5.448 6.155-5.448s.725 5.448 6.155 5.448c3.8 0 7.24-2.443 7.24-7.05 0-6.09-11.016-12.213-13.394-21.154-2.264 8.934-13.394 15.065-13.394 21.154 0 4.61 3.44 7.05 7.24 7.05z" fill="#df0000"/></svg>