<svg xmlns="http://www.w3.org/2000/svg" width="222.783" height="323.556" viewBox="0 0 167.087 242.667" xmlns:v="https://vecta.io/nano"><style><![CDATA[.B{font-size:32px}.C{word-spacing:0px}.D{fill:#000}.E{font-family:Bitstream Vera Sans}.F{font-style:italic}.G{font-weight:bold}.H{font-size:38.4px}.I{font-family:URW Chancery L}.J{font-family:LMMathSymbols9}]]></style><path d="M166.837 235.548a6.89 6.89 0 0 1-6.871 6.869H7.11c-3.775 0-6.86-3.092-6.86-6.87V7.12A6.89 6.89 0 0 1 7.111.25h152.855a6.89 6.89 0 0 1 6.871 6.87v228.428z" fill="#fff" stroke-width=".5" stroke="#000"/><text xml:space="preserve" x="3.945" y="27.356" letter-spacing="0" class="B C D E"><tspan x="3.945" y="27.356" class="F G J">J</tspan></text><path d="M128.768 119.025c7.875-8.974 6.686-41.876 10.103-46.392-4.514 3.415-37.416 2.226-46.392 10.103-6.34 5.572-4.575 12.274-.725 16.124 4.213 4.123 13.426 1.795 15.734 1.858-.937 2.036-17.516 10.235-18.824 8.927l13.198 13.198c-1.308-1.308 6.9-17.887 8.927-18.824.008 2.07-2.683 10.847 1.86 15.736 3.85 3.845 10.548 5.6 16.12-.73z"/><text xml:space="preserve" x="4.273" y="49.051" letter-spacing="0" class="B C D E"><tspan x="4.273" y="49.051" class="F G H I">o</tspan></text><text xml:space="preserve" x="2.63" y="76.992" letter-spacing="0" class="B C D E"><tspan x="2.63" y="76.992" class="F G H I">k</tspan></text><text xml:space="preserve" x="2.63" y="99.345" letter-spacing="0" class="B C D E"><tspan x="2.63" y="99.345" class="F G H I">e</tspan></text><text xml:space="preserve" x="2.301" y="120.383" letter-spacing="0" class="B C D E"><tspan x="2.301" y="120.383" class="F G H I">r</tspan></text><path d="M48.112 66.907c-7.7 7.7-1.002 16.455-1.002 16.455s-8.755-6.698-16.455 1.002c-5.4 5.4-6.802 13.73-.267 20.267 8.635 8.635 32.94 1.698 48.995 11.005-9.46-15.88-2.37-40.36-11.005-48.995-6.535-6.535-14.877-5.123-20.267.267z" fill="#df0000"/><path d="M51 149.16s-9.173-1.02-14.825 4.633c-3.31 3.31-5.864 11.74.927 18.53s15.224 4.234 18.53.927c5.652-5.652 4.633-14.825 4.633-14.825 1.25 10.07 14.353 17.15 23.166 8.338 4.412-4.412 5.66-12.87 0-18.53-6.79-6.79-17.142-2.315-17.142-2.315s7.587-9.313 17.142-8.804l-11.12-11.12c.51 9.553-8.804 17.142-8.804 17.142s4.476-10.35-2.315-17.142c-5.663-5.663-14.12-4.4-18.53 0C33.84 134.808 40.92 147.9 51 149.16z"/><path d="M114.477 138.357c-11.133-1.67-20.155-5.658-20.155-5.658s3.988 9.023 5.658 20.155-.07 21.192-.07 21.192 10.058-1.737 21.195-.068c11.13 1.667 20.153 5.655 20.153 5.655s-3.988-9.023-5.655-20.153c-1.67-11.137.068-21.195.068-21.195s-10.06 1.735-21.192.07z" fill="#df0000"/><text xml:space="preserve" x="-163.716" y="-215.002" transform="scale(-1)" letter-spacing="0" class="B C D E"><tspan x="-163.716" y="-215.002" class="F G J">J</tspan></text><text xml:space="preserve" x="-163.387" y="-193.306" transform="scale(-1)" letter-spacing="0" class="B C D E"><tspan x="-163.387" y="-193.306" class="F G H I">o</tspan></text><text xml:space="preserve" x="-165.031" y="-165.365" transform="scale(-1)" letter-spacing="0" class="B C D E"><tspan x="-165.031" y="-165.365" class="F G H I">k</tspan></text><text xml:space="preserve" x="-165.031" y="-143.012" transform="scale(-1)" letter-spacing="0" class="B C D E"><tspan x="-165.031" y="-143.012" class="F G H I">e</tspan></text><text xml:space="preserve" x="-165.36" y="-121.974" transform="scale(-1)" letter-spacing="0" class="B C D E"><tspan x="-165.36" y="-121.974" class="F G H I">r</tspan></text></svg>