<svg xmlns="http://www.w3.org/2000/svg" xmlns:xlink="http://www.w3.org/1999/xlink" width="222.783" height="323.556" viewBox="0 0 167.087 242.667" xmlns:v="https://vecta.io/nano"><defs><filter color-interpolation-filters="sRGB" id="A" x="-.331" width="1.661" y="-.164" height="1.329"><feGaussianBlur stdDeviation="14.131"/></filter><radialGradient r="8" fy="-8.835" fx="-.158" cy="-8.835" cx="-.158" gradientTransform="matrix(-1.5842693,-0.02349808,0.03071979,-2.4775745,-0.24856378,-26.713507)" id="B" gradientUnits="userSpaceOnUse"><stop offset="0"/><stop offset="1" stop-opacity=".65"/></radialGradient><radialGradient id="C" gradientTransform="matrix(1.2565605,-0.77740644,0.33663816,0.5361257,-221.20213,359.24256)" cx="168.025" cy="509.476" fx="168.025" fy="509.476" r="81.903" gradientUnits="userSpaceOnUse"><stop offset="0" stop-color="#fff" stop-opacity=".435"/><stop offset="1" stop-opacity="0"/></radialGradient><radialGradient id="D" gradientTransform="matrix(1.2565605,-0.77740644,0.33663816,0.5361257,-221.20213,359.24256)" cx="168.025" cy="509.476" fx="168.025" fy="509.476" r="81.903" gradientUnits="userSpaceOnUse"><stop offset="0" stop-color="#fff" stop-opacity=".49"/><stop offset="1" stop-opacity="0"/></radialGradient><radialGradient id="E" gradientTransform="matrix(1.2565605,-0.77740644,0.33663816,0.5361257,-221.20213,359.24256)" cx="168.025" cy="509.476" fx="168.025" fy="509.476" r="81.903" gradientUnits="userSpaceOnUse"><stop offset="0" stop-color="#fff" stop-opacity=".237"/><stop offset="1" stop-opacity="0"/></radialGradient><path id="F" d="M122.357 574.383s-13.123-65.067 17.8-92.974c34.76-31.37 150.11-71.195 150.11-71.195s-81.652 84.604-110.11 108.338c-27.2 22.692-57.8 55.83-57.8 55.83z"/></defs><path d="M166.837 235.548a6.89 6.89 0 0 1-6.871 6.869H7.11c-3.775 0-6.86-3.092-6.86-6.87V7.12A6.89 6.89 0 0 1 7.111.25h152.855a6.89 6.89 0 0 1 6.871 6.87v228.428z" fill="#fff" stroke-width=".5" stroke="#000"/><g transform="matrix(.198611 0 0 .198611 10.083458 15.428884)"><path d="M7.99 3.103C7.747-.954.242-8.6 0-10.5-.242-8.59-7.747-.955-7.99 3.103-8.158 5.97-6.294 7.16-4.6 7.16c1.835-.022 3.35-2.8 3.873-3.34.242.716-1.603 6.682-2.18 6.682h5.81C2.33 10.5.485 4.535.727 3.82c.457.496 1.797 3.258 3.874 3.34C6.295 7.16 8.158 5.97 7.99 3.103z" fill="url(#B)" transform="matrix(31.754082 0 0 29.033123 371.73772 526.70948)"/><use xlink:href="#F" transform="matrix(1.642458 -1.082367 1.344778 1.579553 -783.50446 -14.751674)" fill="url(#C)" filter="url(#A)"/><use xlink:href="#F" transform="matrix(2.489528 -.123763 1.128458 2.89224 -742.11602 -945.22788)" fill="url(#D)" filter="url(#A)"/><use xlink:href="#F" transform="matrix(1.942697 -.30841 .573402 1.993647 -290.37789 -568.34554)" fill="url(#E)" filter="url(#A)"/><path d="M19.993 106.65v854.28H697.15V106.65H19.993zm351.75 115.22c7.685 55.453 245.972 277.15 253.656 394.937 5.366 83.267-53.77 117.752-107.562 117.78-65.95-2.415-108.515-82.59-123.03-97-7.685 20.788 50.897 194 69.188 194h-184.5c18.3 0 76.872-173.212 69.188-194-16.58 15.687-64.726 96.373-123 97-53.823 0-112.99-34.514-107.625-117.78C125.74 499 364.06 277.293 371.743 221.87z" fill="#fffeff"/></g><text xml:space="preserve" x="-160.908" y="-215.097" transform="scale(-1)" font-size="32" letter-spacing="0" word-spacing="0" fill="#000" font-family="Bitstream Vera Sans"><tspan x="-160.908" y="-215.097" font-weight="normal" font-family="Arial">K</tspan></text><path d="M138.173 193.764c.365 5.596 11.687 16.128 12.052 18.763.365-2.633 11.687-13.166 12.052-18.763.255-3.956-2.557-5.596-5.114-5.596-2.77.03-5.055 3.863-5.843 4.608-.365-.988 2.418-9.217 3.287-9.217h-8.766c.87 0 3.652 8.23 3.287 9.217-.7-.685-2.71-4.494-5.844-4.608-2.556.001-5.366 1.64-5.11 5.596z"/><text xml:space="preserve" x="6.246" y="28.013" font-size="32" letter-spacing="0" word-spacing="0" fill="#000" font-family="Bitstream Vera Sans"><tspan x="6.246" y="28.013" font-weight="normal" font-family="Arial">K</tspan></text><path d="M28.98 49.346c-.365-5.596-11.687-16.128-12.052-18.763-.365 2.633-11.687 13.166-12.052 18.763-.255 3.956 2.557 5.596 5.114 5.596 2.77-.03 5.055-3.863 5.843-4.608.365.988-2.418 9.217-3.287 9.217h8.766c-.87 0-3.652-8.23-3.287-9.217.7.685 2.71 4.494 5.844 4.608 2.556-.001 5.366-1.64 5.11-5.596z"/></svg>